# xmcd
#
# Track frame offsets: 
#        150
#        27427
#        44195
#        64880
#        89635
#        111795
#        128820
#        160297
#        177475
#        199172
#        218090
#        234957
#        252712
#        273392
#
# Disc length: 3937 seconds
#
# Revision: 0
# Processed by: cddbd v1.5.2PL0 Copyright (c) Steve Scherf et al.
# Submitted via: ExactAudioCopy v0.99pb3
#
DISCID=d90f5f0e
DTITLE=Joan Osborne - Soul Show
DYEAR=1991
DGENRE=Blues Rock
TTITLE0=Son of a Preacher Man
TTITLE1=Fly Away
TTITLE2=Get up Jack
TTITLE3=Crazy Baby
TTITLE4=Fingerprints
TTITLE5=Dreamin' About the Day
TTITLE6=Help Me
TTITLE7=Match Burn Twice
TTITLE8=Wild World
TTITLE9=4 Camels
TTITLE10=Lady Madonna
TTITLE11=His Eyes are a Blue Million Miles
TTITLE12=Billy Listens (To Your Heartbeat)
TTITLE13=What You Gonna Do
EXTD=
EXTT0=
EXTT1=
EXTT2=
EXTT3=
EXTT4=
EXTT5=
EXTT6=
EXTT7=
EXTT8=
EXTT9=
EXTT10=
EXTT11=
EXTT12=
EXTT13=
PLAYORDER=
